<svg height="512pt" viewBox="-150 0 511 512" width="512pt" xmlns="http://www.w3.org/2000/svg"><path d="m105.945312 512h105.445313v-63.902344l-125.460937-20.019531zm0 0" fill="#ffd422"/><path d="m.5 448.097656v63.902344h105.445312v-83.921875zm0 0" fill="#fff1b6"/><path d="m105.945312 448.097656h105.445313v-182.519531l-125.460937-20.015625zm0 0" fill="#ff9100"/><path d="m105.945312 245.5625-105.445312 20.015625v182.519531h105.445312zm0 0" fill="#ffd422"/><path d="m210.402344 201.675781-124.472656-20.015625 20.015624 83.917969h105.445313v-31.949219c0-10.84375-.339844-21.507812-.988281-31.953125zm0 0" fill="#ffd422"/><path d="m105.945312 181.660156-104.460937 20.015625c-.644531 10.445313-.984375 21.109375-.984375 31.953125v31.949219h105.445312zm0 0" fill="#fff1b6"/><path d="m210.402344 201.675781c-7.03125-113.910156-51.113282-201.675781-104.457032-201.675781l-20.015624 119 20.015624 82.675781zm0 0" fill="#ff9100"/><path d="m105.945312 0c-53.34375 0-97.425781 87.765625-104.460937 201.675781h104.460937zm0 0" fill="#ffd422"/></svg>